<?xml version="1.0" encoding="utf-8"?>
<!-- Generator: Adobe Illustrator 24.3.0, SVG Export Plug-In . SVG Version: 6.00 Build 0)  -->
<svg version="1.1" id="Calque_1" xmlns="http://www.w3.org/2000/svg" xmlns:xlink="http://www.w3.org/1999/xlink" x="0px" y="0px"
	 viewBox="0 0 100 100" style="enable-background:new 0 0 100 100;" xml:space="preserve">
<style type="text/css">
	.st0{fill:#FFFFFF;}
</style>
<path class="st0" d="M69.22,58.72c15.71-15.71,22.06-33.97,14.46-41.58c-7.6-7.6-25.87-1.25-41.58,14.46
	C27.32,46.37,20.83,63.4,26.43,71.7L14.08,84.05l2.38,2.38l12.3-12.3C36.93,80.17,54.23,73.7,69.22,58.72z M31.18,71.71l38.63-38.63
	l-2.38-2.38L28.88,69.25c-3.88-7.03,2.75-22.42,15.6-35.28c13.89-13.89,30.75-20.51,36.81-14.46c6.06,6.06-0.56,22.92-14.46,36.81
	C53.74,69.42,38.03,76.05,31.18,71.71z"/>
</svg>
